<svg width="219" height="219" viewBox="0 0 219 219" fill="none" xmlns="http://www.w3.org/2000/svg">
<path d="M185.127 146.307L136.75 189.086L72.293 185.127L29.5139 136.75L33.4723 72.2929L81.8496 29.5137L146.307 33.4722L189.086 81.8494L185.127 146.307Z" fill="#CEF564" stroke="#016450" stroke-width="3"/>
<path d="M86.1016 123.519L79.8947 114.995L79.8266 115.018C79.916 115.241 80.0502 115.576 80.229 116.022C80.4079 116.468 80.5985 116.948 80.8007 117.462C80.9991 117.965 81.1705 118.426 81.315 118.846L83.2592 124.497L80.9613 125.287L76.7802 113.135L80.2864 111.928L86.3603 120.232L86.4114 120.214L86.2607 109.873L89.767 108.666L93.9482 120.819L91.5483 121.645L89.569 115.892C89.4362 115.506 89.2896 115.062 89.1292 114.558C88.9801 114.051 88.8351 113.575 88.6942 113.128C88.5608 112.667 88.4607 112.32 88.3939 112.089L88.3258 112.113L88.4675 122.705L86.1016 123.519ZM104.456 117.204L102.576 114.615L98.1501 116.138L98.2606 119.336L95.4862 120.29L95.5767 106.611L98.7255 105.527L107.231 116.25L104.456 117.204ZM99.3619 110.143C99.2388 109.97 99.0811 109.751 98.8888 109.488C98.6966 109.224 98.5023 108.954 98.3061 108.679C98.11 108.404 97.9445 108.163 97.8096 107.955C97.831 108.202 97.8492 108.513 97.8641 108.888C97.8866 109.249 97.9051 109.598 97.9197 109.935C97.9418 110.257 97.9516 110.489 97.9492 110.629L98.0532 113.753L101.219 112.664L99.3619 110.143ZM118.727 112.294L116.157 113.178L114.353 107.936L109.536 109.593L111.34 114.836L108.77 115.72L104.589 103.567L107.159 102.683L108.798 107.449L113.615 105.791L111.976 101.026L114.546 100.141L118.727 112.294ZM125.28 96.4483L126.012 98.5759L120.906 100.333L124.355 110.358L121.785 111.242L117.603 99.0893L125.28 96.4483ZM139.926 98.1859C140.36 99.4454 140.528 100.618 140.432 101.705C140.344 102.776 139.964 103.718 139.293 104.533C138.621 105.348 137.622 105.984 136.294 106.441C134.978 106.893 133.799 107.007 132.757 106.782C131.726 106.553 130.839 106.04 130.095 105.242C129.362 104.441 128.78 103.41 128.346 102.151C127.913 100.891 127.74 99.7261 127.829 98.6551C127.928 97.5802 128.316 96.641 128.991 95.8376C129.674 95.0189 130.679 94.3812 132.007 93.9244C133.323 93.4716 134.497 93.3597 135.527 93.5889C136.554 93.8067 137.434 94.3163 138.166 95.1175C138.906 95.9036 139.493 96.9263 139.926 98.1859ZM131.058 101.237C131.496 102.508 132.085 103.428 132.827 103.998C133.565 104.556 134.472 104.65 135.55 104.279C136.651 103.9 137.315 103.266 137.542 102.376C137.764 101.474 137.657 100.388 137.22 99.117C136.779 97.8348 136.195 96.9125 135.468 96.3503C134.742 95.788 133.834 95.6943 132.745 96.0691C131.656 96.4438 130.992 97.0783 130.754 97.9724C130.516 98.8665 130.617 99.9546 131.058 101.237Z" fill="#016450"/>
</svg>
